<svg id="Capa_1" data-name="Capa 1" xmlns="http://www.w3.org/2000/svg" viewBox="0 0 92 92"><defs><style>.cls-1{fill:none;stroke:#3e80aa;stroke-linecap:round;stroke-linejoin:round;stroke-width:4.8px;}</style></defs><title>icons</title><path class="cls-1" d="M15.94,61.43a3.16,3.16,0,0,1-1.14-4.32,1.37,1.37,0,0,1,.13-.2L43.4,15.72a3.16,3.16,0,0,1,4.4-.78,3.25,3.25,0,0,1,.79.78L77.06,56.88a3.16,3.16,0,0,1-.78,4.4,1.58,1.58,0,0,1-.24.15L49.12,76.81a6.35,6.35,0,0,1-6.26,0Z"/><path class="cls-1" d="M46,14.36V77.63"/></svg>