<svg id="Capa_1" data-name="Capa 1" xmlns="http://www.w3.org/2000/svg" viewBox="0 0 92 92"><defs><style>.cls-1{fill:#fffffe;stroke:#3e80aa;stroke-linecap:round;stroke-linejoin:round;stroke-width:5px;}</style></defs><title>icons</title><path class="cls-1" d="M75.32,33a6.5,6.5,0,0,0-3.26-5.64l-22.8-13a6.49,6.49,0,0,0-6.52,0l-22.8,13A6.5,6.5,0,0,0,16.68,33V59a6.49,6.49,0,0,0,3.26,5.63l22.8,13a6.54,6.54,0,0,0,6.52,0l22.8-13A6.49,6.49,0,0,0,75.32,59Z"/><path class="cls-1" d="M17.66,29.71,46,46,74.34,29.71"/><path class="cls-1" d="M46,78.57V46"/></svg>