<svg id="Capa_1" data-name="Capa 1" xmlns="http://www.w3.org/2000/svg" viewBox="0 0 600.06 600.06"><defs><style>.cls-1{fill:#601a20;}.cls-2{fill:#3d80a9;}.cls-3{fill:#f1eae2;}</style></defs><title>otwin-fav</title><rect class="cls-1" width="600.06" height="600.06" rx="92.67"/><path class="cls-2" d="M241.86,435.13Q217.05,418.94,201,382.27t-16-89.53q0-73.35,29.24-108.67t82.54-35.32c4.26,0,8.34.2,12.35.48q2.43-13.51,5.36-26.92c-3.25-.09-6.46-.21-9.81-.21q-65.4,0-107,21.47a157.53,157.53,0,0,0-65,61.57q-23.44,40.11-23.44,97.36,0,81.93,48.36,128.69T297,478c4.2,0,8.3-.13,12.37-.3q-1.9-13.14-3.6-26.37Q266.48,451.16,241.86,435.13Z" transform="translate(0.06)"/><path class="cls-3" d="M469.14,200q-21.6-36.65-61.58-57.25-36.78-19-93.09-20.4-2.94,13.41-5.36,26.92,47.68,3.36,72.05,33.36Q415,224.58,415,303.12q0,74.82-29.49,111.5T306.39,451.3l-.61,0q1.68,13.23,3.6,26.37,52.31-2.16,90.91-22.77A163.75,163.75,0,0,0,467,389.73q23.68-42.08,23.69-99.82Q490.73,236.6,469.14,200Z" transform="translate(0.06)"/></svg>